<mxfile host="app.diagrams.net" agent="Mozilla/5.0 (Windows NT 10.0; Win64; x64) AppleWebKit/537.36 (KHTML, like Gecko) Chrome/137.0.0.0 Safari/537.36" version="27.1.4">
  <diagram name="Page-1" id="DTx9RWkKKiteowcECDlJ">
    <mxGraphModel dx="1426" dy="777" grid="1" gridSize="10" guides="1" tooltips="1" connect="1" arrows="1" fold="1" page="1" pageScale="1" pageWidth="850" pageHeight="1100" math="0" shadow="0">
      <root>
        <mxCell id="0" />
        <mxCell id="1" parent="0" />
        <mxCell id="4LhpvEVTvgx6LtflbIDV-1" value="&lt;font style=&quot;font-size: 18px;&quot;&gt;&lt;b&gt;A DRINK STORE CONCEPTUAL DIAGRAM&lt;/b&gt;&lt;/font&gt;" style="rounded=1;whiteSpace=wrap;html=1;" vertex="1" parent="1">
          <mxGeometry x="80" y="140" width="670" height="80" as="geometry" />
        </mxCell>
        <mxCell id="4LhpvEVTvgx6LtflbIDV-5" style="edgeStyle=orthogonalEdgeStyle;rounded=0;orthogonalLoop=1;jettySize=auto;html=1;entryX=0;entryY=0.5;entryDx=0;entryDy=0;endArrow=none;startFill=0;startArrow=ERmandOne;" edge="1" parent="1" source="4LhpvEVTvgx6LtflbIDV-2" target="4LhpvEVTvgx6LtflbIDV-3">
          <mxGeometry relative="1" as="geometry" />
        </mxCell>
        <mxCell id="4LhpvEVTvgx6LtflbIDV-2" value="SUPERVISOR" style="rounded=1;whiteSpace=wrap;html=1;" vertex="1" parent="1">
          <mxGeometry x="50" y="320" width="160" height="60" as="geometry" />
        </mxCell>
        <mxCell id="4LhpvEVTvgx6LtflbIDV-7" value="" style="edgeStyle=orthogonalEdgeStyle;rounded=0;orthogonalLoop=1;jettySize=auto;html=1;endArrow=ERmandOne;startFill=0;endFill=0;" edge="1" parent="1" source="4LhpvEVTvgx6LtflbIDV-3" target="4LhpvEVTvgx6LtflbIDV-6">
          <mxGeometry relative="1" as="geometry" />
        </mxCell>
        <mxCell id="4LhpvEVTvgx6LtflbIDV-3" value="heads" style="rhombus;whiteSpace=wrap;html=1;" vertex="1" parent="1">
          <mxGeometry x="350" y="310" width="80" height="80" as="geometry" />
        </mxCell>
        <mxCell id="4LhpvEVTvgx6LtflbIDV-6" value="DEPARTMENT" style="rounded=1;whiteSpace=wrap;html=1;" vertex="1" parent="1">
          <mxGeometry x="540" y="320" width="120" height="60" as="geometry" />
        </mxCell>
        <mxCell id="4LhpvEVTvgx6LtflbIDV-9" value="" style="edgeStyle=orthogonalEdgeStyle;rounded=0;orthogonalLoop=1;jettySize=auto;html=1;endArrow=ERoneToMany;startFill=0;endFill=0;" edge="1" parent="1" source="4LhpvEVTvgx6LtflbIDV-8" target="4LhpvEVTvgx6LtflbIDV-6">
          <mxGeometry relative="1" as="geometry" />
        </mxCell>
        <mxCell id="4LhpvEVTvgx6LtflbIDV-8" value="post" style="rhombus;whiteSpace=wrap;html=1;" vertex="1" parent="1">
          <mxGeometry x="560" y="460" width="80" height="80" as="geometry" />
        </mxCell>
        <mxCell id="4LhpvEVTvgx6LtflbIDV-11" value="" style="edgeStyle=orthogonalEdgeStyle;rounded=0;orthogonalLoop=1;jettySize=auto;html=1;endArrow=none;endFill=0;startFill=0;startArrow=ERoneToMany;" edge="1" parent="1" source="4LhpvEVTvgx6LtflbIDV-10" target="4LhpvEVTvgx6LtflbIDV-8">
          <mxGeometry relative="1" as="geometry" />
        </mxCell>
        <mxCell id="4LhpvEVTvgx6LtflbIDV-10" value="EMPLOYEES" style="rounded=1;whiteSpace=wrap;html=1;" vertex="1" parent="1">
          <mxGeometry x="540" y="600" width="120" height="60" as="geometry" />
        </mxCell>
        <mxCell id="4LhpvEVTvgx6LtflbIDV-14" style="edgeStyle=orthogonalEdgeStyle;rounded=0;orthogonalLoop=1;jettySize=auto;html=1;entryX=0;entryY=0.5;entryDx=0;entryDy=0;endArrow=ERoneToMany;startFill=0;endFill=0;" edge="1" parent="1" source="4LhpvEVTvgx6LtflbIDV-13" target="4LhpvEVTvgx6LtflbIDV-10">
          <mxGeometry relative="1" as="geometry" />
        </mxCell>
        <mxCell id="4LhpvEVTvgx6LtflbIDV-15" style="edgeStyle=orthogonalEdgeStyle;rounded=0;orthogonalLoop=1;jettySize=auto;html=1;entryX=0.5;entryY=1;entryDx=0;entryDy=0;endArrow=ERoneToMany;startFill=0;startArrow=none;endFill=0;" edge="1" parent="1" source="4LhpvEVTvgx6LtflbIDV-13" target="4LhpvEVTvgx6LtflbIDV-2">
          <mxGeometry relative="1" as="geometry" />
        </mxCell>
        <mxCell id="4LhpvEVTvgx6LtflbIDV-13" value="pays" style="rhombus;whiteSpace=wrap;html=1;" vertex="1" parent="1">
          <mxGeometry x="90" y="590" width="80" height="80" as="geometry" />
        </mxCell>
        <mxCell id="4LhpvEVTvgx6LtflbIDV-17" style="edgeStyle=orthogonalEdgeStyle;rounded=0;orthogonalLoop=1;jettySize=auto;html=1;entryX=0.5;entryY=1;entryDx=0;entryDy=0;endArrow=ERoneToMany;startFill=0;endFill=0;" edge="1" parent="1" source="4LhpvEVTvgx6LtflbIDV-16" target="4LhpvEVTvgx6LtflbIDV-10">
          <mxGeometry relative="1" as="geometry" />
        </mxCell>
        <mxCell id="4LhpvEVTvgx6LtflbIDV-16" value="sell" style="rhombus;whiteSpace=wrap;html=1;" vertex="1" parent="1">
          <mxGeometry x="560" y="760" width="80" height="80" as="geometry" />
        </mxCell>
        <mxCell id="4LhpvEVTvgx6LtflbIDV-19" style="edgeStyle=orthogonalEdgeStyle;rounded=0;orthogonalLoop=1;jettySize=auto;html=1;endArrow=none;startFill=0;startArrow=ERoneToMany;" edge="1" parent="1" source="4LhpvEVTvgx6LtflbIDV-18" target="4LhpvEVTvgx6LtflbIDV-16">
          <mxGeometry relative="1" as="geometry" />
        </mxCell>
        <mxCell id="4LhpvEVTvgx6LtflbIDV-18" value="PRODUCT" style="rounded=1;whiteSpace=wrap;html=1;" vertex="1" parent="1">
          <mxGeometry x="90" y="770" width="120" height="60" as="geometry" />
        </mxCell>
        <mxCell id="4LhpvEVTvgx6LtflbIDV-21" value="" style="edgeStyle=orthogonalEdgeStyle;rounded=0;orthogonalLoop=1;jettySize=auto;html=1;endArrow=ERoneToMany;startFill=0;endFill=0;" edge="1" parent="1" source="4LhpvEVTvgx6LtflbIDV-20" target="4LhpvEVTvgx6LtflbIDV-18">
          <mxGeometry relative="1" as="geometry" />
        </mxCell>
        <mxCell id="4LhpvEVTvgx6LtflbIDV-20" value="purchase" style="rhombus;whiteSpace=wrap;html=1;" vertex="1" parent="1">
          <mxGeometry x="110" y="910" width="80" height="80" as="geometry" />
        </mxCell>
        <mxCell id="4LhpvEVTvgx6LtflbIDV-23" value="" style="edgeStyle=orthogonalEdgeStyle;rounded=0;orthogonalLoop=1;jettySize=auto;html=1;endArrow=none;startFill=0;endFill=0;startArrow=ERoneToMany;" edge="1" parent="1" source="4LhpvEVTvgx6LtflbIDV-22" target="4LhpvEVTvgx6LtflbIDV-20">
          <mxGeometry relative="1" as="geometry" />
        </mxCell>
        <mxCell id="4LhpvEVTvgx6LtflbIDV-22" value="CUSTOMER" style="rounded=1;whiteSpace=wrap;html=1;" vertex="1" parent="1">
          <mxGeometry x="90" y="1050" width="120" height="60" as="geometry" />
        </mxCell>
        <mxCell id="4LhpvEVTvgx6LtflbIDV-25" value="" style="rounded=1;whiteSpace=wrap;html=1;" vertex="1" parent="1">
          <mxGeometry x="110" y="1280" width="640" height="300" as="geometry" />
        </mxCell>
      </root>
    </mxGraphModel>
  </diagram>
</mxfile>
